<svg id="SvgjsSvg1093" width="360" height="360" xmlns="http://www.w3.org/2000/svg" version="1.1" xmlns:xlink="http://www.w3.org/1999/xlink" xmlns:svgjs="http://svgjs.com/svgjs"><defs id="SvgjsDefs1094"></defs><g id="SvgjsG1095"><svg xmlns="http://www.w3.org/2000/svg" xmlns:xlink="http://www.w3.org/1999/xlink" enable-background="new 0 0 875 823" viewBox="0 0 875 823" width="360" height="360"><path fill="#ffd4db" d="M797 552.6c50.9-91.1 30.4-212.3-60.2-282.9-49.6-38.6-114.7-51-163.4-91.3-54.7-45.3-108.8-100.3-180.2-117.5-75.9-18.3-159.5 8.8-212.3 65.8-64.4 69.3-57.9 166.8-29.1 251.7C224.9 593.6 512.4 763.6 723 630.1c32.5-20.6 57.2-47.4 74-77.5z" class="colorcce9ff svgShape"></path><path fill="#050505" d="M803.1 234.1c0 5.9-4.5 10.6-10.1 10.6h-6.8v24.8l-23.7-24.8h-77.8c-5.6 0-10.1-4.7-10.1-10.6v-88.5c0-5.9 4.5-10.6 10.1-10.6h108.2c5.6 0 10.1 4.8 10.1 10.6v88.5z" class="colorffbe55 svgShape"></path><path fill="#752834" d="M627.3 277.6c0 5.9 4.5 10.6 10.1 10.6h6.8V313l23.7-24.8h77.8c5.6 0 10.1-4.7 10.1-10.6v-88.5c0-5.9-4.5-10.6-10.1-10.6H637.4c-5.6 0-10.1 4.8-10.1 10.6v88.5z" class="color2a94f4 svgShape"></path><path fill="#ffe3ca" d="m559.4 469 12.6-9.2 1.3-1.8-2.3-2.6-3 .8-.8-8.6-14.8-.4-7.8-2.2 10.4 22z" class="colorffe3ca svgShape"></path><path fill="#ffe3ca" d="m585.4 379.8-40.7 64.1s3.1 8.1 6.4 3.1c.4-.6-2.3-1.9.5-3.9 11.2-8 31-22.1 40.1-33.3 12-14.7 12.5-34.4 12.5-34.4l-18.8 4.4z" class="colorffe3ca svgShape"></path><path fill="#ffffff" d="m567.6 437.7-14.8-9.7 11.3-15.4 14.8 9.6z" class="colorfff svgShape"></path><path fill="#752834" d="m540.5 305.7 41.8 54.7-26.6 61.4s17.6 16.4 21.4 12.3c31.1-33.4 41.9-75.8 41.9-75.8l-53.5-87.4s-6.1-13.8-18.3-11.5c-24.6 4.6-9.7 40.4-6.7 46.3z" class="color0e538c svgShape"></path><path fill="#000000" d="M445.9 733.2c-1 1.2-.4 4.4-.4 4.4s17.4 2.3 23.1 1.2c1.5-.3 4-1.5 6.3-2.8.4-.2 1.1-1.5 1.5-1.8.7-.4 1.1.3 1.7-.1 1.6-.9 2.7-1.7 2.7-1.8 1.7-7.9-.2-11.2-.2-11.2s-14.7-5.3-17.6-1.9c-6.8 8-14.9 11.4-17.1 14zM536.9 723.4l1.7 13 13.3.7s.8-1.8 2-1.7c.9.1 2 1.9 3.3 2 2.8.2 5.9.3 7.1.4 2.5.1 26.6 1.5 26.6 1.5s.8-2.7.1-3.7c-.3-.5-2.5-1.5-4-2-6.7-2.3-26-9.4-29-16-3.6-8-21.1 5.8-21.1 5.8z" class="color0b4870 svgShape"></path><path fill="#000000" d="m509 399.9-47.8-1.1s-6.9 29.1-7.5 53.7c-.9 35-1.5 69.6-.8 91.1-.8 3.4-1.1 6.9-.9 10.3 1.5 25.9 8 163.4 8 163.4s20.7 2.4 21-.1c4.9-41.2 10.8-107.7 10.9-133 .1-7.9.4-15.8.8-23.2C496 548.3 509 399.9 509 399.9z" class="color0b4870 svgShape"></path><path fill="#000000" d="m564.7 721.9-15.1-152c0-.1.1-.1.1-.1l-5.8-150.3-64.1-4.3s4 9.2 12.6 48.8c0 0 10.3 80.2 21.2 121.6.2.9.5 1.6.7 2.4 3.2 41.3 21.3 141.3 21.3 141.3l29.1-7.4z" class="color0b4870 svgShape"></path><path fill="#ffe3ca" d="M371.3 315.5s-19.4-15.3-47.1-47c-9.4-10.7-4.8.9-3.2 14.3 1.6 13.4 27.7 40 56.3 47.5 28.6 7.5-6-14.8-6-14.8z" class="colorffe3ca svgShape"></path><path fill="#ffe3ca" d="M326.4 276.9s4.4-14.4 2.1-18c-2.3-3.6-11.6-16.1-11.6-16.1l-2.7-3s-4.8 1.2 1.5 9.6 1.1 6 1.1 6l-8.5-5.3-11-5.7-4.5-3.2s-2.4-2-3.4-2c-2.8.1-1.7 2.3-1.7 2.3l16.7 13.9-18.7-8.5s-2.6-.7-3.4.5c-.8 1.1 0 1.5 0 1.5l19 14.8-10.2-3.3s-2.5-.6-3.4.5c-.9 1.2-1.2 1.5-1.2 1.5l37.4 18.1 2.5-3.6z" class="colorffe3ca svgShape"></path><path fill="#ffffff" d="m325.8 296-9.2-12 15.5-11 9.2 12z" class="colorfff svgShape"></path><path fill="#752834" d="M487.3 277.8s2.5 11.3-40.5 56.9c-24 25.5-37.3 37.8-49.2 32.1-24.3-11.6-81.7-65.9-81.7-65.9l22.5-25.6s54.4 43.7 62.8 48.3c3.5 1.9 25.2-29.1 47.3-60.5 4-5.8 35.9 11.6 38.8 14.7z" class="color0e538c svgShape"></path><path fill="#ffffff" d="m451.5 267.6 31.7-16.9 23.8-5.3 13.4 7.1s27.9 16 30.7 16c2.8 0-.9 149.2-.9 149.2l-71.5 2.4-26 2.1-1.2-154.6z" class="colorfff svgShape"></path><path fill="#752834" d="m472.8 465.1-.6-183.3 10.2-30.2c-13.1 1.6-26.3 2.9-35.7 14.4l-2 181.5 28.1 17.6zM513.2 250.7l10.8 19.8-2.1 124.3 8.6 71.5 27-10.6 4.9-168.6-8.4-27.9z" class="color0e538c svgShape"></path><path fill="#000000" d="m468.4 359.9-10.9-72.2 7.3-5.3-7.9-6.4 6.9-20.9 19.5-6.2-8.7 32.9-4.3 116.6z" class="color0b4870 svgShape"></path><path fill="#050505" d="M484.6 264.7s-10.9 47.5-1.3 134.7c.6 5.6 8.1 8.7 8.1 8.7l7.3-9s-7.7-75-8.6-129.5c-.2-6.8-5.8 1.6-5.5-4.9z" class="colorffbe55 svgShape"></path><path fill="#f2f2f2" d="m488.5 259.3 8.2 10.8 17-18.5v-3.1zM483.7 247.6l-6.1 23.3 8.1-9.7z" class="colorf2f2f2 svgShape"></path><path fill="#fcd2b1" d="M516.4 233.4c-.8 3.9-2.3 12.1-3.9 15.6-2.5 5.4-24.6 10.2-27.9 11-3.4.8.8-16.3.8-20.2 0-3 2-2-.4-6.3h31.4z" class="colorfcd2b1 svgShape"></path><path fill="#ffe3ca" d="M478.8 224.8c-.6 3.3 1.8 6.5 5.3 7l28.4 4.4c3.5.5 6.8-1.7 7.3-5.1l6.7-40.2c.6-3.3-1.8-6.5-5.3-7l-28.4-4.3c-3.5-.5-6.8 1.7-7.3 5.1l-6.7 40.1z" class="colorffe3ca svgShape"></path><path fill="#050505" d="M484.1 194.8s-3.2-4.5-3.5-7c-.2-1.3 1.8-5.6 5.3-6.9 3.5-1.3 5.5 2.4 5.5 2.4s-5.5 1.9-5.9 2.9c-.4 1-1.4 8.6-1.4 8.6z" class="colorffbe55 svgShape"></path><path fill="#050505" d="M526.4 209.4s6.9-14.8 6.9-19.4c0-4.7 0-7.9-5.7-9.3-8.5-2.1-8.9-.3-12.7-3.5-3.8-3.1-10.3-10.4-12.8-11.4-4.2-1.7-11.2-1.3-12.8 6.4-1.2 5.7-5.2 6.5-5.1 6.8.2.7 1.7 1.7 4.2 3.4 7.3 5 11.9 6.5 18.2 5.9 6.3-.6 18.1-2.1 18.7 2.4.6 4.5-2.1 17.5-1.8 18.5.3 1.1 1.8.8 2.9.2z" class="colorffbe55 svgShape"></path><path fill="#ffe3ca" d="M515.5 220.1c-.2 1.1.6 2.2 1.8 2.3l6.1.9c1.2.2 2.3-.6 2.4-1.7l1.8-10.7c.2-1.1-.6-2.2-1.8-2.3l-6.1-.9c-1.2-.2-2.3.6-2.4 1.7l-1.8 10.7zM478.9 214.5c-.2 1.1.6 2.2 1.8 2.3l6.1.9c1.2.2 2.3-.6 2.4-1.7l1.8-10.7c.2-1.1-.6-2.2-1.8-2.3l-6.1-.9c-1.2-.2-2.2.6-2.4 1.7l-1.8 10.7z" class="colorffe3ca svgShape"></path><path fill="#050505" d="M523.1 212.5s-2.7 15.8-3.5 21.1c-.8 4.8-4.6 14.9-32.8 10.6-16.7-2.5-14.1-14.2-13.5-18 .5-2.9 5.4-11.2 7.5-12.6.1 0-1.1 6.5-1.1 6.5s4.5-5.8 12.5-4.6c12.8 2 14.5 9.6 20.2 10.3 4.4.6 8.8-5.7 10.7-13.3z" class="colorffbe55 svgShape"></path><path fill="#ffe3ca" d="m495.7 226.7-8.8-1.3c-1.2-.2-2-1.2-1.8-2.3l.2-1.2 13 2-.2 1.2c-.1 1-1.2 1.8-2.4 1.6z" class="colorffe3ca svgShape"></path><path fill="#050505" d="m484.5 260 4-.7 2.7 9.1-5.3 2.9-4.1-1.3z" class="colorffbe55 svgShape"></path><path fill="#000000" d="M513 247c-.9 2.7 9.9 24.7 9.9 24.7l-.9 115.5 19.4-98.3-6.1-7.6 6.7-6.4-12.2-22.9-16.8-5z" class="color0b4870 svgShape"></path><path fill="#f2f2f2" d="m202.3 128.8-9.3 46.8-9.3 46.8s53.1-16.6 113.5-4.7l4.1-20.6 4.1-20.8c-60.3-11.9-103.1-47.5-103.1-47.5z" class="colorf2f2f2 svgShape"></path><defs><path id="a" d="m288.8 268.9-5.3-2.5 24.1-51.2 13.5 6.4-20.5 43.4c-2.2 4.8-7 6.2-11.8 3.9z"></path></defs><use fill="#050505" overflow="visible" xlink:href="#a" class="colorffbe55 svgShape"></use><clipPath id="b"><use overflow="visible" xlink:href="#a"></use></clipPath><path fill="#050505" d="M321.1 215.2v56-56zM320.5 215.2h.6v56h-.6zM319.9 215.2h.6v56h-.6z" clip-path="url(#b)" class="colorffbe55 svgShape"></path><path fill="#050505" d="M319.3 215.2h.6v56h-.6z" clip-path="url(#b)" class="colorffbe55 svgShape"></path><path fill="#050505" d="M318.8 215.2h.6v56h-.6zM318.2 215.2h.6v56h-.6z" clip-path="url(#b)" class="colorffbe55 svgShape"></path><path fill="#050505" d="M317.6 215.2h.6v56h-.6zM317 215.2h.6v56h-.6zM316.4 215.2h.6v56h-.6z" clip-path="url(#b)" class="colorffbe55 svgShape"></path><path fill="#050505" d="M315.9 215.2h.6v56h-.6z" clip-path="url(#b)" class="colorffbe55 svgShape"></path><path fill="#050505" d="M315.3 215.2h.6v56h-.6zM314.7 215.2h.6v56h-.6z" clip-path="url(#b)" class="colorffbe55 svgShape"></path><path fill="#050505" d="M314.1 215.2h.6v56h-.6z" clip-path="url(#b)" class="colorffbe55 svgShape"></path><path fill="#050505" d="M313.6 215.2h.6v56h-.6zM313 215.2h.6v56h-.6zM312.4 215.2h.6v56h-.6z" clip-path="url(#b)" class="colorffbe55 svgShape"></path><path fill="#050505" d="M311.8 215.2h.6v56h-.6zM311.2 215.2h.6v56h-.6z" clip-path="url(#b)" class="colorffbe55 svgShape"></path><path fill="#050505" d="M310.7 215.2h.6v56h-.6z" clip-path="url(#b)" class="colorffbe55 svgShape"></path><path fill="#050505" d="M310.1 215.2h.6v56h-.6zM309.5 215.2h.6v56h-.6zM308.9 215.2h.6v56h-.6z" clip-path="url(#b)" class="colorffbe55 svgShape"></path><path fill="#050505" d="M308.4 215.2h.6v56h-.6z" clip-path="url(#b)" class="colorffbe55 svgShape"></path><path fill="#050505" d="M307.8 215.2h.6v56h-.6zM307.2 215.2h.6v56h-.6z" clip-path="url(#b)" class="colorffbe55 svgShape"></path><path fill="#050505" d="M306.6 215.2h.6v56h-.6zM306 215.2h.6v56h-.6z" clip-path="url(#b)" class="colorffbe55 svgShape"></path><path fill="#050505" d="M305.5 215.2h.6v56h-.6zM304.9 215.2h.6v56h-.6z" clip-path="url(#b)" class="colorffbe55 svgShape"></path><path fill="#050505" d="M304.3 215.2h.6v56h-.6zM303.7 215.2h.6v56h-.6z" clip-path="url(#b)" class="colorffbe55 svgShape"></path><path fill="#050505" d="M303.1 215.2h.6v56h-.6z" clip-path="url(#b)" class="colorffbe55 svgShape"></path><path fill="#050505" d="M302.6 215.2h.6v56h-.6zM302 215.2h.6v56h-.6zM301.4 215.2h.6v56h-.6z" clip-path="url(#b)" class="colorffbe55 svgShape"></path><path fill="#050505" d="M300.8 215.2h.6v56h-.6zM300.2 215.2h.6v56h-.6z" clip-path="url(#b)" class="colorffbe55 svgShape"></path><path fill="#050505" d="M299.7 215.2h.6v56h-.6z" clip-path="url(#b)" class="colorffbe55 svgShape"></path><path fill="#050505" d="M299.1 215.2h.6v56h-.6zM298.5 215.2h.6v56h-.6zM297.9 215.2h.6v56h-.6z" clip-path="url(#b)" class="colorffbe55 svgShape"></path><path fill="#050505" d="M297.3 215.2h.6v56h-.6z" clip-path="url(#b)" class="colorffbe55 svgShape"></path><path fill="#050505" d="M296.8 215.2h.6v56h-.6zM296.2 215.2h.6v56h-.6z" clip-path="url(#b)" class="colorffbe55 svgShape"></path><path fill="#050505" d="M295.6 215.2h.6v56h-.6zM295 215.2h.6v56h-.6z" clip-path="url(#b)" class="colorffbe55 svgShape"></path><path fill="#050505" d="M294.5 215.2h.6v56h-.6zM293.9 215.2h.6v56h-.6z" clip-path="url(#b)" class="colorffbe55 svgShape"></path><path fill="#050505" d="M293.3 215.2h.6v56h-.6zM292.7 215.2h.6v56h-.6z" clip-path="url(#b)" class="colorffbe55 svgShape"></path><path fill="#050505" d="M292.1 215.2h.6v56h-.6z" clip-path="url(#b)" class="colorffbe55 svgShape"></path><path fill="#050505" d="M291.6 215.2h.6v56h-.6zM291 215.2h.6v56h-.6zM290.4 215.2h.6v56h-.6z" clip-path="url(#b)" class="colorffbe55 svgShape"></path><path fill="#050505" d="M289.8 215.2h.6v56h-.6zM289.2 215.2h.6v56h-.6z" clip-path="url(#b)" class="colorffbe55 svgShape"></path><path fill="#050505" d="M288.7 215.2h.6v56h-.6z" clip-path="url(#b)" class="colorffbe55 svgShape"></path><path fill="#050505" d="M288.1 215.2h.6v56h-.6zM287.5 215.2h.6v56h-.6zM286.9 215.2h.6v56h-.6z" clip-path="url(#b)" class="colorffbe55 svgShape"></path><path fill="#050505" d="M286.3 215.2h.6v56h-.6z" clip-path="url(#b)" class="colorffbe55 svgShape"></path><path fill="#050505" d="M285.8 215.2h.6v56h-.6zM285.2 215.2h.6v56h-.6z" clip-path="url(#b)" class="colorffbe55 svgShape"></path><path fill="#050505" d="M284.6 215.2h.6v56h-.6zM284 215.2h.6v56h-.6zM283.4 215.2h.6v56h-.6zM283.4 271.2v-56 56z" clip-path="url(#b)" class="colorffbe55 svgShape"></path><defs><path id="c" d="m338.9 226.4-53.2-9.9 8.6-43.7 52.8 12.1z"></path></defs><use fill="#050505" overflow="visible" xlink:href="#c" class="colorffbe55 svgShape"></use><clipPath id="d"><use overflow="visible" xlink:href="#c"></use></clipPath><path fill="#050505" d="M347.1 172.8v53.6-53.6zM346.2 172.8h.9v53.6h-.9zM345.2 172.8h.9v53.6h-.9z" clip-path="url(#d)" class="colorffbe55 svgShape"></path><path fill="#050505" d="M344.3 172.8h1v53.6h-1zM343.3 172.8h.9v53.6h-.9zM342.4 172.8h.9v53.6h-.9zM341.5 172.8h.9v53.6h-.9zM340.5 172.8h.9v53.6h-.9zM339.6 172.8h.9v53.6h-.9zM338.6 172.8h.9v53.6h-.9zM337.7 172.8h.9v53.6h-.9zM336.7 172.8h1v53.6h-1zM335.8 172.8h.9v53.6h-.9zM334.8 172.8h.9v53.6h-.9zM333.9 172.8h.9v53.6h-.9zM332.9 172.8h.9v53.6h-.9zM332 172.8h.9v53.6h-.9zM331.1 172.8h.9v53.6h-.9zM330.1 172.8h.9v53.6h-.9z" clip-path="url(#d)" class="colorffbe55 svgShape"></path><path fill="#050505" d="M329.2 172.8h1v53.6h-1zM328.2 172.8h.9v53.6h-.9zM327.3 172.8h.9v53.6h-.9zM326.3 172.8h.9v53.6h-.9zM325.4 172.8h.9v53.6h-.9zM324.4 172.8h.9v53.6h-.9zM323.5 172.8h.9v53.6h-.9zM322.6 172.8h.9v53.6h-.9zM321.6 172.8h.9v53.6h-.9zM320.7 172.8h.9v53.6h-.9zM319.7 172.8h.9v53.6h-.9z" clip-path="url(#d)" class="colorffbe55 svgShape"></path><path fill="#050505" d="M318.8 172.8h1v53.6h-1zM317.8 172.8h.9v53.6h-.9zM316.9 172.8h.9v53.6h-.9zM315.9 172.8h.9v53.6h-.9zM315 172.8h.9v53.6h-.9zM314 172.8h.9v53.6h-.9zM313.1 172.8h.9v53.6h-.9zM312.2 172.8h.9v53.6h-.9zM311.2 172.8h1v53.6h-1zM310.3 172.8h.9v53.6h-.9zM309.3 172.8h.9v53.6h-.9zM308.4 172.8h.9v53.6h-.9zM307.4 172.8h.9v53.6h-.9zM306.5 172.8h.9v53.6h-.9zM305.5 172.8h.9v53.6h-.9zM304.6 172.8h.9v53.6h-.9zM303.6 172.8h.9v53.6h-.9z" clip-path="url(#d)" class="colorffbe55 svgShape"></path><path fill="#050505" d="M302.7 172.8h1v53.6h-1zM301.8 172.8h.9v53.6h-.9zM300.8 172.8h.9v53.6h-.9zM299.9 172.8h.9v53.6h-.9zM298.9 172.8h.9v53.6h-.9zM298 172.8h.9v53.6h-.9zM297 172.8h.9v53.6h-.9zM296.1 172.8h.9v53.6h-.9zM295.1 172.8h1v53.6h-1zM294.2 172.8h.9v53.6h-.9zM293.2 172.8h.9v53.6h-.9zM292.3 172.8h.9v53.6h-.9zM291.4 172.8h.9v53.6h-.9zM290.4 172.8h.9v53.6h-.9zM289.5 172.8h.9v53.6h-.9zM288.5 172.8h.9v53.6h-.9zM287.6 172.8h.9v53.6h-.9zM286.6 172.8h1v53.6h-1zM285.7 172.8h.9v53.6h-.9zM285.7 226.4v-53.6 53.6z" clip-path="url(#d)" class="colorffbe55 svgShape"></path><ellipse cx="263.5" cy="471.5" fill="#752834" rx="67.5" ry="48.8" class="color2a94f4 svgShape"></ellipse><ellipse cx="235.2" cy="509.9" fill="#050505" rx="57.9" ry="41.8" class="colorffbe55 svgShape"></ellipse><path fill="#050505" d="M236.6 546.2h19.6V572z" class="colorffbe55 svgShape"></path><path fill="#752834" d="M269.7 434.1h22.9V404z" class="color2a94f4 svgShape"></path><path fill="#050505" d="M178.2 155.7c-1.2 1.2-3.1 1.2-4.2 0l-26.2-26.2c-1.2-1.2-1.2-3.1 0-4.2 1.2-1.2 3.1-1.2 4.2 0l26.2 26.2c1.2 1.1 1.2 3 0 4.2zM165.9 197.7c.2 1.6-1 3.1-2.7 3.3l-36.8 3.9c-1.6.2-3.1-1-3.3-2.7-.2-1.6 1-3.1 2.7-3.3l36.8-3.9c1.6-.1 3.1 1.1 3.3 2.7zM159.8 174.1c-.5 1.6-2.3 2.4-3.8 1.8l-35-12.2c-1.6-.5-2.4-2.3-1.8-3.8.5-1.6 2.3-2.4 3.8-1.8l34.9 12.2c1.6.5 2.4 2.2 1.9 3.8z" class="colorffbe55 svgShape"></path></svg></g></svg>