<svg id="SvgjsSvg1496" width="260" height="260" xmlns="http://www.w3.org/2000/svg" version="1.1" xmlns:xlink="http://www.w3.org/1999/xlink" xmlns:svgjs="http://svgjs.com/svgjs"><defs id="SvgjsDefs1497"></defs><g id="SvgjsG1498"><svg xmlns="http://www.w3.org/2000/svg" enable-background="new 0 0 3000 3000" viewBox="0 0 3000 3000" width="260" height="260" version="1.1" xmlns:xlink="http://www.w3.org/1999/xlink" xmlns:svgjs="http://svgjs.com/svgjs"><path fill="#ff6699" d="M779.54 1334.28a88.668 88.668 0 0 1-6.65-11.07c-28.45-56.14 3.62-134.75 5-138.07 1.31-3.16 4.94-4.66 8.11-3.35 3.16 1.32 4.66 4.95 3.35 8.11-.32.76-31.25 76.71-5.37 127.73 10.79 21.31 30.31 35.51 57.98 42.24 95.2 23.19 159.63-53.52 221.94-127.7 25.41-30.26 49.42-58.83 74.7-79.36 30.77-24.98 37.17-20.44 62.31 5.14 25.09 25.52 71.79 73.02 192.7 140.84 3 1.67 4.06 5.45 2.38 8.45a6.215 6.215 0 0 1-8.45 2.38c-122.46-68.69-169.97-117.01-195.48-142.97-22.56-22.95-22.56-22.95-45.64-4.21-24.36 19.78-48 47.92-73.02 77.71-61.73 73.49-131.69 156.78-234.38 131.77-26.42-6.42-46.37-19.06-59.48-37.64z" class="color77c6ee svgShape"></path><ellipse cx="1588.87" cy="2710.81" fill="#ffbf66" rx="453.13" ry="23.39" class="coloreeedf7 svgShape"></ellipse><path fill="#2b4c54" d="M1280.87 1996.95s31.74.25 31.66 50.7c-.09 50.45-42.68 196.32-80.96 184.34-38.28-11.99-25.94-117.09-15.68-149.29 10.24-32.19 24.25-77.58 64.98-85.75z" class="color2b4c54 svgShape"></path><path fill="#fdae88" d="M1275.95 2001.45c8.52-.1 25.74 11.66 27.17 20.59 3.54 22.14-.94 42.5-16.22 50.86-8 4.38-26.47-6.99-29.96-14.55-18.04-39.09 4.02-56.73 19.01-56.9z" class="colorfdae88 svgShape"></path><path fill="#000000" d="M1239.25 2203.58c-25.83-6.03-28.11-36.41-17.08-87.48 11.03-51.07 53.31-46.04 62.83-11.86 9.5 34.18-25.04 104.18-45.75 99.34z" class="color395b64 svgShape"></path><path fill="#000000" d="M1575.46 1592.08s-284.65 642.11-513.82 551.51c-218.82-86.51 193.18-583.69 193.18-583.69l320.64 32.18z" class="color395b64 svgShape"></path><path fill="#2b4c54" d="M1857.32 2579.4s17.43-9.67 32.99 15.21c15.56 24.88 37.4 109.86 12.77 115.76-24.63 5.9-50.4-49.68-54.76-68.7-4.35-19.02-10.73-45.69 9-62.27z" class="color2b4c54 svgShape"></path><path fill="#fdcea3" d="M1821.83 2556.87s43.66-33.57 44.53-27.35c4.45 31.81 10.87 54.7 10.57 76.42-.09 6.32-19.63 6.62-23.02 1.94-22.63-31.23-32.08-51.01-32.08-51.01z" class="colorfdcea3 svgShape"></path><path fill="#000000" d="M1902.31 2700.65c-15.98 4.99-26.63-9.27-36.4-37.82-9.77-28.56 14.9-39.12 30.67-25.22 15.78 13.9 18.55 59.03 5.73 63.04z" class="color395b64 svgShape"></path><path fill="#ffffff" d="M1903.6 2660.03c-1.04-5.15-2.86-9.13-5.18-12.15a63.324 63.324 0 0 0-4.76 4.65c2.84 3.51 5.39 8.42 5.53 14.85.3 14.79-.16 15.25-.16 15.25s7.02-10.49 4.57-22.6zM1892.29 2643.99c-1.77-.75-3.79.24-4.18 2.12-.25 1.19.23 2.41 1.23 3.09.83.56 1.91 1.37 3.07 2.42a69.03 69.03 0 0 1 4.73-4.64c-1.51-1.25-3.13-2.26-4.85-2.99z" opacity=".2" class="colorfff svgShape"></path><path fill="#000000" d="M1674.16 1575.49s57.25 310.92 203.42 976.92c3.34 15.19-53.43 36.95-60.84 24.28-187.02-319.74-548.32-1007.07-548.32-1007.07l405.74 5.87z" class="color395b64 svgShape"></path><path fill="#2b4c54" d="M1627.39 2226.08c-.31-9.85-2.63-18.47-5.82-27.78-6.78-19.77-16.27-42.9-7.21-63.58 3.4-7.76 9.65-12.31 15.57-17.98 5.07-4.86 8.74-11.56 11.09-18.15 3.69-10.35 3.04-21.41-.98-31.57-9.84-24.87-32.1-44.01-51.28-61.69-19.1-17.6-41.05-35.15-53.62-58.37-4.94-9.14-7.86-19.75-6.01-30.14a41.71 41.71 0 0 1 5.96-15.22c4.73-7.35 12.92-9.92 20.87-12.34 9.27-2.82 18.14-5.44 18.45-16.62.26-9.6-4.16-19.18-8.32-27.6-7.09-14.39-15.7-27.96-23.3-42.07-13.9-25.8-32.78-64.44-17-93.29 9.1-16.63 28.42-24.01 46.66-21.3 22.85 3.39 41.26 17.61 61.94 26.6 22.81 9.92 46.23 14.53 69.94 15.86-20.8-104.51-30.16-155.34-30.16-155.34l-308.35-4.46-111-11.14s-16.2 19.57-40.44 51.54c22.73 35.79 57.56 63.43 98.33 75.69 16.62 4.99 33.63 5.12 50.49 8.58 14.28 2.93 26.96 9.71 30.52 24.91 4.71 20.12-4.61 41.21-19.07 54.85-15.15 14.3-33.15 23.62-51.57 32.78-11.85 5.89-35.33 16.58-29.48 33.63 4.1 11.94 16.94 20.31 24.9 29.56 9.67 11.24 14.88 24.69 10.01 39.33-5.83 17.56-20.24 30.47-36.23 38.85-16.82 8.82-35.65 13.44-54.05 17.66-8.83 2.03-17.7 3.9-26.46 6.22-4.68 1.25-16.9 3.43-18.62 8.78-.78 2.42 3.57 9.12 5.25 12.16 3.91 7.07 7.48 14.17 9.79 21.95 4.88 16.49 2.65 33.05-6.08 47.82-17.85 30.18-54.61 48.01-86.25 59.72a295.939 295.939 0 0 1-63.14 15.71c2.86 1.39 5.81 2.73 8.92 3.96 123.27 48.74 262.58-114.53 365.02-275.83 60.4 112.99 131.41 244.92 200.64 371.35.17-4.36.23-8.7.09-13.04z" opacity=".25" class="color2b4c54 svgShape"></path><path fill="#fdae88" d="m1056.3 730.57 230.21 201.32-100.1 97.24S974.48 831.96 959.8 760.08s96.5-29.51 96.5-29.51z" class="colorfdae88 svgShape"></path><path fill="#fdae88" d="M948.74 447.13c-17.68 4.96-22.11 4.67-39.01 11.9 4.88 70.4 29.25 384.21 115.12 356.12 98.73-32.3-61.2-284.71-76.11-368.02z" class="colorfdae88 svgShape"></path><path fill="#fdae88" d="M888.75 435.98c1.88 3.54 4.09 6.73 6.36 9.53 7 8.63 14.61 13.52 14.61 13.52l2.09 29.49c16.09-.77 42.47-9.74 40.48-18.92 0 0-7.9-13.8-2.11-26.91.02-.12.1-.26.16-.36 2.38-2.32 3.97-7.5 4.65-13.45.46-4.1.5-8.57.11-12.74-.97-10.19 20.6-28.12 16.21-32.67-4.41-4.54-19.74 2.48-22.91 10.38-3.17 7.87-10.2 4.94-12.44-2.84-3.45-12.01-7.33-71.16-15.93-70.07-8.6 1.09-4.54 59.67-4.54 59.67s-15.75-65.63-23.51-60.21c-7.73 5.42 8.31 65.35 8.31 65.35s-15.36-46.76-24.11-46.17c-8.76.56 7.63 54.79 7.63 54.79s-15.34-31.66-23.16-30.57c-7.83 1.1 20.46 57.69 28.1 72.18z" class="colorfdae88 svgShape"></path><path fill="#231f20" d="M942.39 452.07c-3.76 4.43-9.51 6.62-15.15 7.4-5.59.77-11.64.22-16.68-2.47-1.49-.8-2.78-1.8-3.97-2.92.83.41 1.65.78 2.47 1.06 10.02 3.45 18.24-4.9 18.24-4.9 2.34.8 11.75-1.41 19.06-5.25-1.12 2.47-2.19 4.99-3.97 7.08z" opacity=".1" class="color231f20 svgShape"></path><path fill="#ffffff" d="M888.75 435.98c1.88 3.54 4.09 6.73 6.36 9.53 3.98 3.83 9.11 7.97 13.95 9.62 10.02 3.45 18.24-4.9 18.24-4.9 2.78.96 15.52-2.33 22.88-7.55.02-.12.1-.26.16-.36 2.38-2.32 3.97-7.5 4.65-13.45.46-4.1.5-8.57.11-12.74-.97-10.19 20.6-28.12 16.21-32.67-4.41-4.54-19.74 2.48-22.91 10.38-3.17 7.87-10.2 4.94-12.44-2.84-3.45-12.01-7.33-71.16-15.93-70.07-8.6 1.09-4.54 59.67-4.54 59.67s-15.75-65.63-23.51-60.21c-7.73 5.42 8.31 65.35 8.31 65.35s-15.36-46.76-24.11-46.17c-8.76.56 7.63 54.79 7.63 54.79s-15.34-31.66-23.16-30.57c-7.83 1.11 20.46 57.7 28.1 72.19z" opacity=".2" class="colorfff svgShape"></path><path fill="#fa9c70" d="M880.86 398.19c2.9-2.15 5.82-4.23 8.85-6.14 3.02-1.89 6.11-3.72 9.42-4.93 3.31-1.28 6.77-2.28 10.22-3.19 3.46-.89 6.97-1.64 10.56-2.01-3.62-.19-7.24.3-10.79.99-3.56.7-7.03 1.73-10.47 2.93-3.43 1.35-6.57 3.23-9.53 5.32-2.95 2.13-5.74 4.44-8.26 7.03z" class="colorfa9c70 svgShape"></path><path fill="#fdae88" d="m1932.34 1183.89-272.8-138.22-52.74 129.2s242.9 129.72 315.05 116.46c72.14-13.26 10.49-107.44 10.49-107.44z" class="colorfdae88 svgShape"></path><path fill="#fdae88" d="M2159.45 1020.08c11.68 14.16 15.48 16.45 25.23 32.05-44.2 55.01-243.39 298.72-297.85 226.63-62.62-82.9 212.81-198.8 272.62-258.68z" class="colorfdae88 svgShape"></path><path fill="#fdae88" d="M2215.06 1045.18c-3.57 1.83-7.2 3.19-10.67 4.19-10.67 3.09-19.72 2.76-19.72 2.76l-18.56 23.01c-12.77-9.82-29.31-32.24-22.43-38.65 0 0 14.36-6.82 17.1-20.88.05-.11.07-.27.08-.39-.63-3.27 1.02-8.42 3.86-13.69a62.96 62.96 0 0 1 7.19-10.52c6.62-7.81-.85-34.85 5.35-36.08 6.22-1.21 14.79 13.31 12.88 21.6-1.89 8.28 5.55 9.88 11.83 4.77 9.69-7.89 46.65-54.23 53.09-48.42 6.44 5.81-30.34 51.58-30.34 51.58s50.4-44.89 53.68-36c3.26 8.86-44.13 48.91-44.13 48.91s39.31-29.61 46.16-24.14c6.87 5.46-37.55 40.62-37.55 40.62s30.67-17.24 36.47-11.87c5.79 5.36-49.74 35.67-64.29 43.2z" class="colorfdae88 svgShape"></path><path fill="#231f20" d="M2161.83 1027.76c.56 5.78 4.03 10.86 8.21 14.72 4.15 3.83 9.43 6.83 15.1 7.5 1.68.2 3.31.11 4.93-.13-.91-.14-1.8-.31-2.63-.54-10.2-2.89-12.18-14.43-12.18-14.43-2.38-.68-8.84-7.86-12.65-15.19-.49 2.66-1.04 5.33-.78 8.07z" opacity=".1" class="color231f20 svgShape"></path><path fill="#ffffff" d="M2215.06 1045.18c-3.57 1.83-7.2 3.19-10.67 4.19-5.45.88-12.03 1.34-16.95-.07-10.2-2.89-12.18-14.43-12.18-14.43-2.83-.8-11.41-10.78-14.47-19.27.05-.11.07-.27.08-.39-.63-3.27 1.02-8.42 3.86-13.69a62.96 62.96 0 0 1 7.19-10.52c6.62-7.81-.85-34.85 5.35-36.08 6.22-1.21 14.79 13.31 12.88 21.6-1.89 8.28 5.55 9.88 11.83 4.77 9.69-7.89 46.65-54.23 53.09-48.42 6.44 5.81-30.34 51.58-30.34 51.58s50.4-44.89 53.68-36c3.26 8.86-44.13 48.91-44.13 48.91s39.31-29.61 46.16-24.14c6.87 5.46-37.55 40.62-37.55 40.62s30.67-17.24 36.47-11.87c5.78 5.37-49.75 35.68-64.3 43.21z" opacity=".2" class="colorfff svgShape"></path><path fill="#fa9c70" d="M2243.11 1018.66c-1.16-3.42-2.37-6.8-3.76-10.09-1.4-3.28-2.9-6.54-4.92-9.42-1.99-2.94-4.26-5.74-6.57-8.46-2.33-2.71-4.78-5.33-7.52-7.68 3.08 1.91 5.77 4.38 8.29 6.98 2.53 2.61 4.78 5.43 6.93 8.38 2.05 3.07 3.55 6.41 4.79 9.81 1.2 3.42 2.17 6.91 2.76 10.48z" class="colorfa9c70 svgShape"></path><path fill="#57424d" d="M1843.46 1124.35c-225.52-184.92-217.01-115.18-362.1-155.05 0 0-150.05-8.92-249.28-95.65-37.05-32.39-79.31 149.85-79.31 149.85s62.29 93.78 133.85 139.66c-25.4 184.6-123.83 415.45-72.24 448.28 57.37 36.5 404.74 45.46 462.1 4.41 36.21-25.92 14.4-241.23-9.45-372.18 13.24 1.7 54.67 26.38 114.81 39.51 58.57-28.16 61.62-158.83 61.62-158.83z" class="color8cd2fe svgShape"></path><path fill="#231f20" d="M1683.01 1377.63c-1.58 28.13-4.74 56.16-11.26 83.84-10.33 43.85-30.16 89.85-69.42 121.63-44.32 35.88-103.97 39.01-161.86 44.61-59.65 5.76-200.63-5.99-191.59-3.8 47.01 11.41 305.31 41.61 427.6-8.07 33.6-13.65 22.88-128.38 6.53-238.21z" opacity=".1" class="color231f20 svgShape"></path><path fill="#2b4c54" d="M1604.01 1704.67s55.83 42.94 87.32 47.71v15.27s-57.27-17.17-87.32-50.57v-12.41zM1241.55 1650.24c-14.72 24.79-54.82 44.87-54.82 44.87l-.05 12.75c32.4-9.11 64.58-49.92 64.58-49.92l-9.71-7.7z" class="color2b4c54 svgShape"></path><path fill="#ffbf66" d="m2290.28 1111.79 234.04 35.19-30.4 75.8z" class="coloreeedf7 svgShape"></path><path fill="#ffbf66" d="m1202.85 504.22-92.71-209.39 88.21-16.1zM2190.71 730.34l126.46-190.92 61.09 65.64zM897.87 1001.07l-201.86 108.15-22.66-86.76z" class="colorbde0fb svgShape"></path><path fill="#ffbf66" d="M1380.5 289.19c0 12.92-10.47 23.39-23.39 23.39s-23.39-10.47-23.39-23.39 10.47-23.39 23.39-23.39c12.92.01 23.39 10.48 23.39 23.39z" class="coloreeedf7 svgShape"></path><path fill="#ffbf66" d="M2027.03 569.68c0 12.92-10.47 23.39-23.39 23.39s-23.39-10.47-23.39-23.39 10.47-23.39 23.39-23.39 23.39 10.47 23.39 23.39z" class="colorbde0fb svgShape"></path><path fill="#ffbf66" d="M2003.65 885.71c0 12.92-10.47 23.39-23.39 23.39s-23.39-10.47-23.39-23.39 10.47-23.39 23.39-23.39c12.92.01 23.39 10.48 23.39 23.39z" class="coloreeedf7 svgShape"></path><path fill="#ffbf66" d="M1573.23 412.71c0 12.92-10.47 23.39-23.39 23.39s-23.39-10.47-23.39-23.39 10.47-23.39 23.39-23.39 23.39 10.47 23.39 23.39z" class="colorbde0fb svgShape"></path><path fill="#ffbf66" d="M1186.41 614.29c0 9.29-7.53 16.83-16.83 16.83-9.29 0-16.83-7.53-16.83-16.83 0-9.29 7.53-16.83 16.83-16.83 9.3 0 16.83 7.53 16.83 16.83z" class="coloreeedf7 svgShape"></path><path fill="#ff6699" d="M1997.88 1381.51c-8.01 0-17.09-5.89-30.24-14.88a2.68 2.68 0 0 1-.7-3.72 2.692 2.692 0 0 1 3.72-.7c15.3 10.45 23.22 15.18 29.59 13.66 8.85-2.14 17.33-17.74 34.21-48.83l7.53-13.83c13.93-25.48 28.45-38.19 42.76-38.12 18.06.23 28.78 20.67 29.23 21.54a2.67 2.67 0 0 1-1.15 3.6c-1.31.67-2.92.16-3.61-1.15-.09-.18-9.71-18.46-24.56-18.63-12.33-.12-25.26 12.08-37.98 35.33l-7.52 13.82c-18.74 34.5-26.49 48.78-37.66 51.48-1.18.29-2.38.43-3.62.43zM1011.65 2154.99h-.16c-21.34-1.24-38.5-9.26-51.01-23.85-27.82-32.42-23.14-85.45-22.93-87.69.14-1.47 1.56-2.54 2.92-2.41 1.47.14 2.55 1.45 2.41 2.91-.05.53-4.66 53.04 21.67 83.72 11.53 13.43 27.43 20.82 47.25 21.98 1.47.09 2.6 1.35 2.51 2.83a2.664 2.664 0 0 1-2.66 2.51zM983.06 922.77a2.68 2.68 0 0 1-2.57-3.44c5.26-17.76 7.36-26.75 3.93-32.36-4.75-7.77-22.19-11.05-56.95-17.58l-15.49-2.93c-28.52-5.45-45.14-15.21-49.39-29.02-5.32-17.26 10.84-33.73 11.54-34.42a2.67 2.67 0 0 1 3.78 0 2.67 2.67 0 0 1 .01 3.78c-.15.15-14.59 14.91-10.21 29.09 3.58 11.58 19.24 20.34 45.27 25.31l15.47 2.93c38.58 7.25 54.55 10.26 60.53 20.05 4.8 7.85 1.84 19.05-3.37 36.67a2.646 2.646 0 0 1-2.55 1.92z" class="color77c6ee svgShape"></path><path fill="#752834" d="M1861.08 1709.74c-184.29.01-339.74-83.46-461.74-148.96-84.97-45.62-172.84-92.78-205.5-70.71-407.34 275.01-784.68 149.49-800.55 144.01l61.16-177.12-30.58 88.56 30.1-88.73c.77.26 78.36 25.6 195.34 22.84 154.8-3.68 302.73-52.42 439.67-144.87 126.46-85.38 265.01-11.01 398.99 60.92 148.64 79.8 317.11 170.26 513.98 102.55 155.03-53.32 235.6-94.14 288.92-121.16 112.48-56.99 152.06-65.85 315.82-30.06l-40 183.07c-114.03-24.91-114.02-24.92-191.13 14.15-57.91 29.34-145.41 73.68-312.67 131.2-70.58 24.28-137.94 34.31-201.81 34.31z" class="colord3c848 svgShape"></path><path fill="#000000" d="M2530.79 1426.69c-45.52 15.47-90.03 11.8-137.08 8.35-44.46-3.26-99.88-9.24-138.81 17.54-20.91 14.39-28.29 34.2-36.2 57.39-7.45 21.84-16.25 40.32-33 56.58-36.82 35.72-91.09 34.55-137.32 53.34-504.44 205.03-574.69-153.1-873.12-150.11-47.76.48-84.86-52.13-87.81-35.36-3.22 18.36-6.02 36.88-12.63 54.42-9.39 24.95-26.39 42.34-52.05 50.19-16.2 4.96-33.26 6.63-50.09 7.83-23.58 1.67-47.64 3.28-71.24 1.63-56.06-3.94-110.6-21.85-166.99-22.28-27.39-.21-51.98 5.67-73.26 23.6-16.27 13.71-28.87 31.28-45.59 44.47-31.58 24.91-77.37 31.03-116.36 27.89-32.26-2.6-63.65-11.7-93.36-24.53l-12.59 36.45c15.87 5.48 393.2 131 800.55-144.01 32.66-22.07 120.53 25.1 205.5 70.71 122 65.5 277.45 148.97 461.74 148.96 63.87 0 131.23-10.03 201.83-34.31 167.26-57.52 254.76-101.86 312.67-131.2 77.11-39.07 77.1-39.06 191.13-14.15l30.42-139.25c-19.94 15.46-42.37 27.71-66.34 35.85z" opacity=".2" class="color395b64 svgShape"></path><path fill="#2b4c54" d="M1581.3 799.35s23.44-9.7 15.69-42.18c0 0 21.13-16.17 7.27-46.46-13.86-30.3-45.32-14.57-45.32-14.57s-17.34-46.03-49.74-47.78c-32.41-1.75-21.92 15.7-21.92 15.7s-54.83-29.69-81.31-5.8c-26.48 23.89 3.55 57.1 3.55 57.1s-15.21 8.8-17.92 30.3c-4.34 34.37 16.3 39.18 16.3 39.18s-3.03 34.87 14.71 42.48c17.74 7.61 161.73 73.43 158.69-27.97z" class="color2b4c54 svgShape"></path><path fill="#fdae88" d="M1536.48 983.46s-22.84 26.17-44.01 26.17c-21.18 0-46.87-20.94-46.87-20.94s12.26-26.57 12.92-42.48c.39-10.57.74-19.81.74-21.38h66.89l.27 27.3 10.06 31.33z" class="colorfdae88 svgShape"></path><path fill="#513f3c" d="M1526.42 952.14c-10.53 8.78-21.92 14.47-30.7 14.47-10.65 0-25.08-8.35-37.21-20.4.39-10.57.74-19.81.74-21.38h66.89l.28 27.31z" opacity=".1" class="color513f3c svgShape"></path><path fill="#fdae88" d="M1601.77 819.96c-7.11-13.86-20.01-9.89-27.32-6.11-.32-29.68-3.83-52.32-3.83-52.32-.25-1.59-.75-3.1-1.51-4.53-14.76-26.67-122.59-27.67-144.48-3.1-2.1 2.26-3.35 4.86-3.77 7.63 0 0-3.29 22.76-3.36 52.55-7.23-3.85-20.5-8.25-27.74 5.88-10.11 19.72 12.62 49.07 31.82 48.26 7.44 43.56 27.05 83.9 74.17 83.9 48.03 0 67.72-40.32 74.97-83.87 19.02.04 41.03-28.83 31.05-48.29z" class="colorfdae88 svgShape"></path><path fill="#fa9c70" d="M1496.84 931.5c-8.3 0-13.14-4.83-13.22-4.9a1.974 1.974 0 0 1 2.82-2.76c.35.35 8.7 8.46 22.84-.29.93-.57 2.14-.29 2.71.64.57.92.29 2.14-.64 2.71-5.56 3.44-10.45 4.6-14.51 4.6z" class="colorfa9c70 svgShape"></path><path fill="#fa9c70" d="M1423.72 768.09c5.92-1.53 10.97-5.37 16.3-8.2 6.51-3.46 13.7-6.38 21.09-7.14 3.4-.35 6.92-.21 10.17.95 3.36 1.2 6 3.59 8.75 5.78 1.36 1.09 2.79 2.1 4.39 2.8 1.94.85 3.95 1.15 6.05 1.23 4.46.16 8.92-.65 13.21-1.82 4.21-1.15 8.43-2.63 12.36-4.51 3.77-1.81 7.77-3.25 11.93-3.85 4.08-.58 8.54-.44 12.47.88 3.27 1.1 5.95 3.31 8.64 5.39 3.09 2.38 6.3 4.22 10.19 4.9 3.9.69 7.85.35 11.78.13-.27-2.02-.44-3.12-.44-3.12-.25-1.59-.75-3.1-1.51-4.53-14.76-26.67-122.59-27.67-144.48-3.1-2.1 2.26-3.35 4.86-3.77 7.63 0 0-.37 2.54-.85 7.01 1.24.08 2.51-.11 3.72-.43z" opacity=".1" class="colorfa9c70 svgShape"></path><path fill="#2b4c54" d="M1492.07 865.99c-2.62-5.91 1.23-12.63 1.4-12.92a2.769 2.769 0 0 1 3.78-.99c1.33.76 1.77 2.45 1.01 3.78-.75 1.3-2.3 5.26-1.06 8.04.98 2.01 3.5 3.32 7.51 3.91a2.768 2.768 0 1 1-.8 5.48c-5.95-.87-9.89-3.22-11.71-7-.04-.11-.09-.21-.13-.3zM1483.78 906.74c.32 4.37 5.94 7.53 12.55 7.04 6.61-.48 11.72-4.42 11.4-8.79-.32-4.37-5.94-7.52-12.55-7.04-6.61.48-11.72 4.42-11.4 8.79zM1595.88 837.11c.54 0 1.05-.32 1.26-.85 4.6-11.76-7.17-18.71-7.29-18.78a1.34 1.34 0 0 0-1.84.49c-.37.64-.15 1.47.49 1.84.41.24 9.88 5.88 6.13 15.46-.27.69.07 1.48.76 1.75.16.06.32.09.49.09zM1548.04 820.6c.18-.85-.17-1.76-.94-2.26-17.05-11.13-31.9 5.16-32.05 5.33-.81.9-.71 2.27.17 3.07.89.8 2.26.72 3.07-.17.51-.56 12.54-13.66 26.43-4.59 1.01.66 2.35.37 3.01-.63.15-.24.25-.49.31-.75zM1478.97 817.35c.18-.85-.17-1.76-.94-2.26-17.05-11.13-31.9 5.16-32.05 5.33-.81.9-.71 2.27.17 3.07.89.8 2.26.72 3.07-.17.51-.56 12.54-13.66 26.43-4.59a2.176 2.176 0 0 0 3.32-1.38zM1444.34 802.38s31.01 3.08 34.56.52c3.55-2.57-5.12-10.41-19.2-9.02-14.08 1.39-18.86 7.87-15.36 8.5zM1548.75 802.38s-31.01 3.08-34.56.52c-3.55-2.57 5.12-10.41 19.2-9.02 14.08 1.39 18.86 7.87 15.36 8.5zM1393.92 837.23c-.54 0-1.05-.32-1.26-.85-4.6-11.76 7.17-18.71 7.29-18.78a1.34 1.34 0 0 1 1.84.49c.37.64.15 1.47-.49 1.84-.4.24-9.88 5.88-6.13 15.46.27.69-.07 1.48-.76 1.75-.17.06-.33.09-.49.09z" class="color2b4c54 svgShape"></path><path fill="#ffffff" d="m1261.75 1363.42 20.83 4.27-38.62 65.3-25.02-5.12-9.92-75.25 20.93 4.29 5.55 54 26.25-47.49zM1316.11 1381.64l18.53 7.35-26.44 66.64-18.52-7.35 26.43-66.64zM1397.44 1416.02c16.31 7.63 23.52 22.47 19.84 38.72l-19.44-9.1c-.02-5.96-3.1-10.66-8.44-13.17-8.29-3.88-16.75.03-21.41 9.98-4.7 10.05-2.28 19.04 6.01 22.93 5.34 2.5 10.93 1.86 15.52-1.95l19.44 9.1c-10.13 13.23-26.14 17.2-42.45 9.56-19.54-9.14-25.96-28.78-16.86-48.22 9.06-19.35 28.25-27 47.79-17.85zM1452.43 1443.25l51.97 25.76-7.05 14.22-17.14-8.5-24.8 50.06-17.87-8.86 24.8-50.05-16.96-8.4 7.05-14.23zM1527.83 1561.38c-18.28-8.92-26.4-29.86-16.95-49.24 9.46-19.38 30.91-25.78 49.19-16.86 18.38 8.97 26.36 29.72 16.9 49.11-9.45 19.38-30.86 25.91-49.14 16.99zm8.12-16.63c9.23 4.5 17.97.73 22.84-9.23 4.95-10.14 2.5-19.27-6.74-23.77-9.32-4.55-17.93-.83-22.88 9.32-4.87 9.96-2.55 19.12 6.78 23.68zM1645.09 1536.38c16.26 7.26 20.28 20.21 15.05 31.91-3.82 8.54-11.78 13.9-22.86 12.52l3.36 32.14-20.34-9.09-2.21-29.96-1.95-.87-10.79 24.15-18.21-8.14 29.26-65.48 28.69 12.82zm-8.29 14.57-9.01-4.03-6.1 13.66 9.01 4.03c4.92 2.2 8.51.9 10.5-3.56 1.82-4.08.52-7.89-4.4-10.1zM1689.47 1555.96l21.41 7.82 2.36 30.33 21.34-21.67 21.12 7.71-40.48 37.33-7.81 21.41-18.83-6.88 7.81-21.41-6.92-54.64z" class="colore2d661 svgShape"></path><path fill="#ff6699" d="M1816.87 1460.4c-.09.07-.18.13-.27.2-21.51 15.42-54.82 9.19-107.4-2.26a6.198 6.198 0 0 1-4.74-7.38 6.19 6.19 0 0 1 7.39-4.74c53.97 11.75 81.19 16.01 97.52 4.3.06-.04.12-.09.18-.13 22.33-16.27 28.24-68.63 39.99-172.67 1.62-14.37 3.36-29.76 5.28-46.24 7.33-63.18 32.11-106.47 73.62-128.59 90.74-48.4 227.75 21 233.54 23.98 3.05 1.57 4.24 5.31 2.68 8.36-1.58 3.05-5.31 4.25-8.36 2.68-1.36-.69-137.06-69.41-222.04-24.05-37.69 20.11-60.28 60.18-67.11 119.05-1.91 16.47-3.65 31.85-5.27 46.21-12.54 110.94-18.29 161.8-45.01 181.28z" class="color77c6ee svgShape"></path></svg></g></svg>